<?xml version="1.0" encoding="UTF-8" standalone="no"?>
<!DOCTYPE svg PUBLIC "-//W3C//DTD SVG 1.1//EN" "http://www.w3.org/Graphics/SVG/1.1/DTD/svg11.dtd">
<svg width="100%" height="100%" viewBox="0 0 24 24" version="1.1" xmlns="http://www.w3.org/2000/svg" xmlns:xlink="http://www.w3.org/1999/xlink" xml:space="preserve" style="fill-rule:evenodd;clip-rule:evenodd;">
    <path d="M23.036,9.548L23.036,20.583C23.036,21.929 21.929,23.036 20.583,23.036L3.417,23.036C2.071,23.036 0.964,21.929 0.964,20.583L0.964,9.548L23.036,9.548Z" style="fill:white;"/>
    <path d="M0.964,9.548L0.964,5.869C0.964,4.524 2.071,3.417 3.417,3.417L20.583,3.417C21.929,3.417 23.036,4.524 23.036,5.869L23.036,9.548L0.964,9.548Z" style="fill:rgb(221,186,255);"/>
    <g transform="matrix(1.22621,0,0,1.22621,-2.71455,-2.71455)">
        <path d="M5,5L19,5C20.097,5 21,5.903 21,7L21,19C21,20.097 20.097,21 19,21L5,21C3.903,21 3,20.097 3,19L3,7C3,5.903 3.903,5 5,5ZM16,3L16,7M8,3L8,7M3,10L21,10" style="fill:none;fill-rule:nonzero;stroke:black;stroke-width:1px;"/>
    </g>
    <g transform="matrix(1,0,0,1,-3.31816,8.17657)">
        <path d="M10.992,9.486L8.853,9.486L8.853,13.109L6.761,13.109L6.761,3.033L11.15,3.033C12.161,3.033 12.968,3.292 13.57,3.812C14.171,4.331 14.472,5.136 14.472,6.225C14.472,7.414 14.171,8.255 13.57,8.747C12.968,9.24 12.109,9.486 10.992,9.486ZM11.977,7.387C12.25,7.146 12.387,6.763 12.387,6.239C12.387,5.715 12.249,5.341 11.973,5.118C11.698,4.894 11.311,4.783 10.815,4.783L8.853,4.783L8.853,7.749L10.815,7.749C11.311,7.749 11.699,7.629 11.977,7.387Z" style="fill-rule:nonzero;"/>
        <path d="M22.46,12.357C21.708,13.045 20.747,13.389 19.576,13.389C18.126,13.389 16.987,12.924 16.158,11.995C15.328,11.06 14.913,9.78 14.913,8.153C14.913,6.394 15.385,5.038 16.329,4.085C17.149,3.256 18.192,2.841 19.459,2.841C21.155,2.841 22.394,3.397 23.178,4.509C23.611,5.134 23.843,5.76 23.875,6.389L21.77,6.389C21.633,5.906 21.458,5.541 21.244,5.295C20.861,4.858 20.293,4.639 19.541,4.639C18.776,4.639 18.172,4.948 17.73,5.565C17.288,6.183 17.067,7.057 17.067,8.187C17.067,9.317 17.3,10.164 17.767,10.727C18.235,11.289 18.828,11.571 19.548,11.571C20.287,11.571 20.849,11.329 21.237,10.846C21.451,10.586 21.629,10.197 21.77,9.677L23.855,9.677C23.673,10.775 23.208,11.669 22.46,12.357Z" style="fill:rgb(138,53,222);fill-rule:nonzero;"/>
    </g>
</svg>
